<svg xmlns="http://www.w3.org/2000/svg" width="20px" height="20px" viewBox="-7.5 992.5 16 16" x="464" y="464"><path fill="gray" d="M-5.516 996.331h-.024c-1.179 0-1.96-.812-1.96-1.835 0-1.032.797-1.828 2.016-1.828 1.203 0 1.969.796 1.984 1.828 0 1.023-.781 1.835-2.016 1.835zm1.68 1.665v10.336h-3.329v-10.336h3.329zm5.336 10.336h-3.336v-8s-.055-1.985-.055-2.336H1.39l.109 1.43c.664-1 1.664-1.758 3-1.758 2.336 0 4 1.664 4 4.664v6H5.164v-5.665c0-1.671-.812-2.335-1.812-2.335s-1.852.664-1.852 2v6z"/></svg>